<svg width="22" height="22" viewBox="0 0 22 22" fill="none" xmlns="http://www.w3.org/2000/svg">
<path d="M20.2739 21.6516L21.6467 20.2786C21.8279 20.0974 21.8279 19.8074 21.6467 19.6261L14.8872 12.8652L12.8621 14.8908L19.6215 21.6516C19.8028 21.8329 20.0927 21.8329 20.2739 21.6516Z" fill="#EC7570"/>
<path d="M7.40267 3.03613C4.99246 3.03613 3.03076 4.99823 3.03076 7.40894C3.03076 7.63552 3.21651 7.8213 3.44304 7.8213C3.66956 7.8213 3.85531 7.63552 3.85531 7.40894C3.85531 5.45137 5.44551 3.86085 7.40267 3.86085C7.6292 3.86085 7.81495 3.67506 7.81495 3.44849C7.81495 3.21739 7.6292 3.03613 7.40267 3.03613Z" fill="#8E64CD"/>
<path d="M15.1771 12.5747C15.0185 12.4161 14.7558 12.4161 14.5972 12.5747L13.8769 13.2952L12.9209 12.339C14.0943 11.0295 14.8101 9.29846 14.8101 7.40433C14.8101 3.32152 11.4893 0 7.40733 0C3.32537 0 0 3.32152 0 7.40433C0 11.4871 3.32084 14.8087 7.4028 14.8087C9.29654 14.8087 11.0227 14.0927 12.3365 12.9191L13.2924 13.8752L12.5721 14.5957C12.4951 14.6727 12.4498 14.7769 12.4498 14.8857C12.4498 14.9944 12.4951 15.0987 12.5721 15.1757L19.0008 21.6058C19.2545 21.8595 19.5898 22 19.9477 22C20.3056 22 20.6409 21.8595 20.8946 21.6058L21.6058 20.8943C21.8596 20.6406 22 20.3053 22 19.9473C22 19.5893 21.8596 19.254 21.6058 19.0002L15.1771 12.5747ZM0.824547 7.40433C0.824547 3.77467 3.77842 0.820185 7.40733 0.820185C11.0362 0.820185 13.9901 3.77467 13.9901 7.40433C13.9901 11.034 11.0362 13.9885 7.40733 13.9885C3.77842 13.9885 0.824547 11.034 0.824547 7.40433ZM21.0259 20.3188L20.3147 21.0303C20.215 21.13 20.0881 21.1843 19.9477 21.1843C19.8072 21.1843 19.6804 21.13 19.5807 21.0303L13.4419 14.8902L14.8871 13.4447L21.0259 19.5848C21.1256 19.6845 21.18 19.8113 21.18 19.9518C21.18 20.0923 21.1211 20.2237 21.0259 20.3188Z" fill="#8E64CD"/>
</svg>
