<svg id="visual" viewBox="0 0 900 450" width="900" height="450" xmlns="http://www.w3.org/2000/svg" xmlns:xlink="http://www.w3.org/1999/xlink" version="1.1"><rect x="0" y="0" width="900" height="450" fill="#fff"></rect><defs><linearGradient id="grad1_0" x1="50%" y1="0%" x2="100%" y2="100%"><stop offset="10%" stop-color="#fa703c" stop-opacity="1"></stop><stop offset="90%" stop-color="#fa703c" stop-opacity="1"></stop></linearGradient></defs><defs><linearGradient id="grad1_1" x1="50%" y1="0%" x2="100%" y2="100%"><stop offset="10%" stop-color="#fa703c" stop-opacity="1"></stop><stop offset="90%" stop-color="#ffb99b" stop-opacity="1"></stop></linearGradient></defs><defs><linearGradient id="grad1_2" x1="50%" y1="0%" x2="100%" y2="100%"><stop offset="10%" stop-color="#ffffff" stop-opacity="1"></stop><stop offset="90%" stop-color="#ffb99b" stop-opacity="1"></stop></linearGradient></defs><defs><linearGradient id="grad2_0" x1="0%" y1="0%" x2="50%" y2="100%"><stop offset="10%" stop-color="#fa703c" stop-opacity="1"></stop><stop offset="90%" stop-color="#fa703c" stop-opacity="1"></stop></linearGradient></defs><defs><linearGradient id="grad2_1" x1="0%" y1="0%" x2="50%" y2="100%"><stop offset="10%" stop-color="#ffb99b" stop-opacity="1"></stop><stop offset="90%" stop-color="#fa703c" stop-opacity="1"></stop></linearGradient></defs><defs><linearGradient id="grad2_2" x1="0%" y1="0%" x2="50%" y2="100%"><stop offset="10%" stop-color="#ffb99b" stop-opacity="1"></stop><stop offset="90%" stop-color="#ffffff" stop-opacity="1"></stop></linearGradient></defs><g transform="translate(900, 0)"><path d="M0 315C-25.8 292.3 -51.6 269.6 -85.9 264.4C-120.3 259.2 -163.2 271.4 -185.2 254.8C-207.1 238.3 -208.1 193.1 -224.9 163.4C-241.7 133.7 -274.3 119.5 -292 94.9C-309.6 70.2 -312.3 35.1 -315 0L0 0Z" fill="#ffdccc"></path><path d="M0 210C-17.2 194.9 -34.4 179.8 -57.3 176.3C-80.2 172.8 -108.8 180.9 -123.4 169.9C-138.1 158.9 -138.7 128.7 -149.9 108.9C-161.1 89.1 -182.9 79.7 -194.6 63.2C-206.4 46.8 -208.2 23.4 -210 0L0 0Z" fill="#ff956b"></path><path d="M0 105C-8.6 97.4 -17.2 89.9 -28.6 88.1C-40.1 86.4 -54.4 90.5 -61.7 84.9C-69 79.4 -69.4 64.4 -75 54.5C-80.6 44.6 -91.4 39.8 -97.3 31.6C-103.2 23.4 -104.1 11.7 -105 0L0 0Z" fill="#fa703c"></path></g><g transform="translate(0, 450)"><path d="M0 -315C34.5 -314.4 69.1 -313.7 97.3 -299.6C125.6 -285.5 147.6 -257.8 171.6 -236.2C195.7 -214.6 221.8 -199.1 243.5 -176.9C265.3 -154.8 282.7 -126.1 293.9 -95.5C305.1 -64.9 310 -32.5 315 0L0 0Z" fill="#ffdccc"></path><path d="M0 -210C23 -209.6 46.1 -209.1 64.9 -199.7C83.7 -190.3 98.4 -171.9 114.4 -157.5C130.4 -143.1 147.8 -132.7 162.3 -117.9C176.8 -103.2 188.5 -84 195.9 -63.7C203.4 -43.3 206.7 -21.6 210 0L0 0Z" fill="#ff956b"></path><path d="M0 -105C11.5 -104.8 23 -104.6 32.4 -99.9C41.9 -95.2 49.2 -85.9 57.2 -78.7C65.2 -71.5 73.9 -66.4 81.2 -59C88.4 -51.6 94.2 -42 98 -31.8C101.7 -21.6 103.3 -10.8 105 0L0 0Z" fill="#fa703c"></path></g></svg>