<svg width="42" height="43" viewBox="0 0 42 43" fill="none" xmlns="http://www.w3.org/2000/svg">
<g filter="url(#filter0_d_60_66)">
<rect x="6" y="2.66455" width="30" height="31.1801" rx="12" fill="white"/>
</g>
<path d="M21.1939 13.0881C21.1503 13.0447 21.0922 13.0205 21.0319 13.0205C20.9715 13.0205 20.9135 13.0447 20.8699 13.0881L15.4763 18.4432C15.4534 18.466 15.4352 18.4933 15.4228 18.5236C15.4103 18.5539 15.4039 18.5866 15.404 18.6195L15.4031 23.6455C15.4031 23.9039 15.5018 24.1517 15.6777 24.3345C15.8535 24.5172 16.0919 24.6198 16.3406 24.6198H19.156C19.2803 24.6198 19.3996 24.5685 19.4875 24.4772C19.5754 24.3858 19.6248 24.2619 19.6248 24.1327V19.9915C19.6248 19.9269 19.6494 19.865 19.6934 19.8193C19.7374 19.7736 19.797 19.748 19.8591 19.748H22.2029C22.265 19.748 22.3247 19.7736 22.3686 19.8193C22.4126 19.865 22.4373 19.9269 22.4373 19.9915V24.1327C22.4373 24.2619 22.4866 24.3858 22.5745 24.4772C22.6625 24.5685 22.7817 24.6198 22.906 24.6198H25.7203C25.9689 24.6198 26.2074 24.5172 26.3832 24.3345C26.559 24.1517 26.6578 23.9039 26.6578 23.6455V18.6195C26.6578 18.5866 26.6514 18.5539 26.639 18.5236C26.6265 18.4933 26.6083 18.466 26.5854 18.4432L21.1939 13.0881Z" fill="#FF8A61"/>
<path d="M27.9134 17.4393L25.722 15.2604V11.9539C25.722 11.8247 25.6726 11.7007 25.5847 11.6094C25.4968 11.518 25.3775 11.4667 25.2532 11.4667H23.847C23.7227 11.4667 23.6034 11.518 23.5155 11.6094C23.4276 11.7007 23.3782 11.8247 23.3782 11.9539V12.9282L21.6814 11.242C21.5226 11.0751 21.2864 10.9795 21.0313 10.9795C20.777 10.9795 20.5414 11.0751 20.3826 11.2423L14.1512 17.4387C13.969 17.6214 13.9461 17.9219 14.1119 18.1199C14.1536 18.1698 14.2046 18.2104 14.2618 18.2393C14.319 18.2681 14.3813 18.2845 14.4448 18.2875C14.5083 18.2906 14.5718 18.2801 14.6313 18.2568C14.6908 18.2336 14.7452 18.1979 14.791 18.1521L20.8701 12.1146C20.9137 12.0713 20.9718 12.0471 21.0321 12.0471C21.0925 12.0471 21.1505 12.0713 21.1941 12.1146L27.2738 18.1521C27.3634 18.2414 27.4833 18.2901 27.6074 18.2876C27.7315 18.2851 27.8495 18.2316 27.9357 18.1387C28.1155 17.9451 28.1006 17.6254 27.9134 17.4393Z" fill="#FF8A61"/>
<defs>
<filter id="filter0_d_60_66" x="0.5" y="0.664551" width="41" height="42.1802" filterUnits="userSpaceOnUse" color-interpolation-filters="sRGB">
<feFlood flood-opacity="0" result="BackgroundImageFix"/>
<feColorMatrix in="SourceAlpha" type="matrix" values="0 0 0 0 0 0 0 0 0 0 0 0 0 0 0 0 0 0 127 0" result="hardAlpha"/>
<feOffset dy="3.5"/>
<feGaussianBlur stdDeviation="2.75"/>
<feColorMatrix type="matrix" values="0 0 0 0 0 0 0 0 0 0 0 0 0 0 0 0 0 0 0.02 0"/>
<feBlend mode="normal" in2="BackgroundImageFix" result="effect1_dropShadow_60_66"/>
<feBlend mode="normal" in="SourceGraphic" in2="effect1_dropShadow_60_66" result="shape"/>
</filter>
</defs>
</svg>
