<svg width="36" height="37" viewBox="0 0 36 37" fill="none" xmlns="http://www.w3.org/2000/svg">
<rect x="0.5" y="0.629395" width="35" height="36.3768" rx="12" fill="white"/>
<path d="M18 9.46387C13.0312 9.46387 9 13.6537 9 18.8179C9 23.9821 13.0312 28.1719 18 28.1719C22.9687 28.1719 27 23.9821 27 18.8179C27 13.6537 22.9687 9.46387 18 9.46387ZM17.7187 24.2744C17.5333 24.2744 17.3521 24.2173 17.1979 24.1102C17.0437 24.0031 16.9236 23.851 16.8526 23.6729C16.7817 23.4949 16.7631 23.299 16.7993 23.11C16.8354 22.9209 16.9247 22.7473 17.0558 22.6111C17.1869 22.4748 17.354 22.382 17.5359 22.3444C17.7177 22.3068 17.9062 22.3261 18.0775 22.3998C18.2488 22.4736 18.3952 22.5985 18.4983 22.7587C18.6013 22.9189 18.6562 23.1073 18.6562 23.3C18.6562 23.5585 18.5575 23.8063 18.3817 23.989C18.2058 24.1718 17.9674 24.2744 17.7187 24.2744ZM19.2862 19.3051C18.5264 19.8352 18.4219 20.3209 18.4219 20.7667C18.4219 20.9476 18.3527 21.121 18.2297 21.249C18.1066 21.3769 17.9397 21.4487 17.7656 21.4487C17.5916 21.4487 17.4247 21.3769 17.3016 21.249C17.1785 21.121 17.1094 20.9476 17.1094 20.7667C17.1094 19.6992 17.5819 18.8505 18.5541 18.1719C19.4578 17.5415 19.9687 17.142 19.9687 16.2636C19.9687 15.6663 19.6406 15.2127 18.9614 14.877C18.8016 14.7981 18.4458 14.7211 18.008 14.7265C17.4586 14.7338 17.032 14.8702 16.7034 15.145C16.0837 15.6634 16.0312 16.2275 16.0312 16.2358C16.0271 16.3254 16.006 16.4132 15.9692 16.4943C15.9324 16.5754 15.8805 16.6482 15.8167 16.7085C15.7528 16.7687 15.6781 16.8154 15.5969 16.8456C15.5157 16.8759 15.4295 16.8893 15.3434 16.885C15.2572 16.8807 15.1727 16.8587 15.0946 16.8205C15.0166 16.7822 14.9466 16.7283 14.8886 16.662C14.8306 16.5956 14.7857 16.518 14.7566 16.4335C14.7275 16.3491 14.7146 16.2596 14.7187 16.17C14.7239 16.0516 14.8031 14.9852 15.8798 14.0849C16.4381 13.6181 17.1483 13.3755 17.9892 13.3648C18.5845 13.3575 19.1437 13.4622 19.523 13.6483C20.6578 14.2062 21.2812 15.1362 21.2812 16.2636C21.2812 17.9117 20.2214 18.6518 19.2862 19.3051Z" fill="#FF8A62"/>
</svg>
