<svg width="57" height="56" viewBox="0 0 57 56" fill="none" xmlns="http://www.w3.org/2000/svg">
<g filter="url(#filter0_d_23_1618)">
<rect x="6" y="2" width="45" height="45" rx="12" fill="#FF8A62"/>
</g>
<path d="M21.4467 17.8185H35.5092C35.6734 17.8185 35.8375 17.8289 36.0005 17.8497C35.9453 17.462 35.8121 17.0895 35.609 16.7547C35.4059 16.4199 35.1371 16.1296 34.8188 15.9015C34.5006 15.6733 34.1394 15.512 33.757 15.4272C33.3747 15.3424 32.9792 15.3359 32.5943 15.4081L21.0292 17.3826H21.016C20.2901 17.5214 19.6445 17.9321 19.2112 18.5309C19.864 18.0665 20.6455 17.8175 21.4467 17.8185Z" fill="white"/>
<path d="M35.5093 18.875H21.4468C20.7011 18.8758 19.9862 19.1724 19.4589 19.6997C18.9317 20.2269 18.6351 20.9418 18.6343 21.6875V30.125C18.6351 30.8707 18.9317 31.5856 19.4589 32.1128C19.9862 32.6401 20.7011 32.9367 21.4468 32.9375H35.5093C36.2549 32.9367 36.9698 32.6401 37.4971 32.1128C38.0244 31.5856 38.321 30.8707 38.3218 30.125V21.6875C38.321 20.9418 38.0244 20.2269 37.4971 19.6997C36.9698 19.1724 36.2549 18.8758 35.5093 18.875ZM33.4219 27.3125C33.1437 27.3125 32.8719 27.23 32.6406 27.0755C32.4093 26.921 32.2291 26.7014 32.1227 26.4444C32.0162 26.1874 31.9884 25.9047 32.0426 25.6319C32.0969 25.3591 32.2308 25.1085 32.4275 24.9119C32.6242 24.7152 32.8747 24.5813 33.1475 24.527C33.4203 24.4728 33.7031 24.5006 33.96 24.607C34.217 24.7135 34.4366 24.8937 34.5911 25.125C34.7456 25.3562 34.8281 25.6281 34.8281 25.9062C34.8281 26.2792 34.68 26.6369 34.4162 26.9006C34.1525 27.1643 33.7948 27.3125 33.4219 27.3125Z" fill="white"/>
<path d="M18.6562 24.6514V20.2788C18.6562 19.3265 19.1836 17.73 21.0139 17.3841C22.5674 17.0928 24.1055 17.0928 24.1055 17.0928C24.1055 17.0928 25.1162 17.7959 24.2812 17.7959C23.4463 17.7959 23.4683 18.8726 24.2812 18.8726C25.0942 18.8726 24.2812 19.9053 24.2812 19.9053L21.0073 23.6187L18.6562 24.6514Z" fill="white"/>
<defs>
<filter id="filter0_d_23_1618" x="0.5" y="-2.38419e-07" width="56" height="56" filterUnits="userSpaceOnUse" color-interpolation-filters="sRGB">
<feFlood flood-opacity="0" result="BackgroundImageFix"/>
<feColorMatrix in="SourceAlpha" type="matrix" values="0 0 0 0 0 0 0 0 0 0 0 0 0 0 0 0 0 0 127 0" result="hardAlpha"/>
<feOffset dy="3.5"/>
<feGaussianBlur stdDeviation="2.75"/>
<feColorMatrix type="matrix" values="0 0 0 0 0 0 0 0 0 0 0 0 0 0 0 0 0 0 0.02 0"/>
<feBlend mode="normal" in2="BackgroundImageFix" result="effect1_dropShadow_23_1618"/>
<feBlend mode="normal" in="SourceGraphic" in2="effect1_dropShadow_23_1618" result="shape"/>
</filter>
</defs>
</svg>
